<?xml version="1.0" standalone="no"?>
<!DOCTYPE svg PUBLIC "-//W3C//DTD SVG 20010904//EN"
 "http://www.w3.org/TR/2001/REC-SVG-20010904/DTD/svg10.dtd">
<svg version="1.0" xmlns="http://www.w3.org/2000/svg"
 width="225.000000pt" height="75.000000pt" viewBox="0 0 225.000000 75.000000"
 preserveAspectRatio="xMidYMid meet">

<g transform="translate(0.000000,75.000000) scale(0.100000,-0.100000)"
fill="#000000" stroke="none">
<path d="M398 664 c-4 -6 -12 -23 -18 -38 -7 -20 -7 -25 2 -20 8 5 9 0 6 -14
-4 -12 -2 -22 4 -22 6 0 8 13 6 30 -2 16 0 31 5 33 5 1 8 12 5 22 -2 12 -6 16
-10 9z"/>
<path d="M2100 555 c0 -24 1 -24 20 -8 11 10 20 21 20 25 0 5 -9 8 -20 8 -15
0 -20 -7 -20 -25z"/>
<path d="M276 532 c-2 -4 11 -6 31 -4 23 3 38 0 44 -9 6 -10 9 -11 9 -1 0 6 6
12 14 12 9 0 13 -7 11 -20 -2 -11 0 -20 6 -20 5 0 9 11 9 25 0 24 -3 25 -59
25 -33 0 -62 -4 -65 -8z"/>
<path d="M2136 528 c3 -5 10 -6 15 -3 13 9 11 12 -6 12 -8 0 -12 -4 -9 -9z"/>
<path d="M735 478 c-10 -26 -75 -222 -75 -225 0 -2 11 -3 24 -3 17 0 26 7 30
25 6 22 11 25 55 25 44 0 49 -3 55 -25 5 -19 13 -25 33 -25 24 0 25 1 10 18
-19 21 -88 208 -80 216 4 3 -6 6 -21 6 -14 0 -29 -6 -31 -12z m54 -97 c13 -40
15 -36 -26 -44 -36 -7 -55 9 -31 27 8 6 18 24 22 40 8 33 18 26 35 -23z"/>
<path d="M920 370 l0 -121 68 7 c80 8 97 16 116 53 13 24 13 34 0 79 -9 29
-25 59 -37 67 -12 8 -17 15 -12 16 31 2 -39 18 -82 18 l-53 1 0 -120z m131 59
c15 -15 19 -30 17 -61 -3 -47 -33 -75 -83 -80 l-30 -3 -3 74 c-2 53 1 77 10
82 24 15 68 9 89 -12z"/>
<path d="M1280 375 l0 -115 60 0 c70 0 111 17 128 55 15 32 15 38 0 29 -6 -4
-8 -3 -5 3 14 22 -7 74 -41 108 -32 31 -42 35 -89 35 l-53 0 0 -115z m130 55
c24 -24 26 -76 5 -107 -16 -22 -81 -47 -97 -37 -4 3 -8 40 -8 83 l0 77 40 2
c28 2 45 -3 60 -18z"/>
<path d="M1530 375 l0 -115 81 0 c74 0 79 1 64 16 -12 12 -28 15 -61 11 l-45
-5 3 37 3 36 53 3 c28 2 52 7 52 13 0 5 -5 9 -11 9 -5 0 -7 5 -3 11 5 9 -7 10
-44 7 -54 -5 -66 3 -50 35 7 13 21 17 63 17 53 0 55 1 43 20 -11 17 -24 20
-80 20 l-68 0 0 -115z"/>
<path d="M1755 465 c-46 -45 -28 -85 50 -113 37 -13 50 -23 50 -37 0 -16 -9
-21 -45 -26 -38 -6 -48 -4 -63 15 l-18 21 3 -29 c2 -25 9 -31 37 -39 43 -11
93 -2 123 22 22 19 22 20 5 55 -9 20 -22 36 -27 36 -6 0 -8 5 -4 12 5 8 0 9
-14 6 -12 -4 -19 -2 -16 3 3 5 -9 8 -27 7 -25 -2 -34 1 -37 15 -8 37 56 60
100 36 26 -14 33 -6 16 20 -20 32 -100 30 -133 -4z"/>
<path d="M1962 378 c-2 -117 -2 -118 21 -117 16 1 17 3 5 6 -15 4 -18 21 -21
116 l-3 112 -2 -117z"/>
<path d="M2063 447 c-44 -62 -51 -75 -31 -59 22 17 72 91 66 97 -2 3 -18 -14
-35 -38z"/>
<path d="M470 448 c-38 -63 -20 -161 35 -186 30 -14 84 -15 104 -3 9 6 -4 9
-37 8 -44 -2 -56 2 -79 26 -37 37 -39 110 -5 156 12 17 18 31 12 31 -6 0 -19
-15 -30 -32z"/>
<path d="M533 463 c-24 -9 -14 -23 10 -14 15 6 34 4 54 -4 26 -11 31 -11 27 0
-8 20 -61 31 -91 18z"/>
<path d="M2033 345 c8 -8 25 -30 37 -50 17 -27 28 -35 48 -34 20 1 22 3 7 6
-11 2 -34 24 -50 48 -17 25 -36 45 -43 45 -10 0 -10 -3 1 -15z"/>
<path d="M605 300 c-3 -5 -1 -10 4 -10 6 0 11 5 11 10 0 6 -2 10 -4 10 -3 0
-8 -4 -11 -10z"/>
<path d="M798 232 l-358 -2 0 -40 0 -40 860 0 860 0 0 46 0 45 -502 -3 c-277
-2 -664 -4 -860 -6z m896 -23 c9 14 36 2 36 -14 0 -23 -20 -28 -41 -9 -10 9
-22 14 -26 10 -4 -4 -1 -11 7 -16 13 -8 12 -10 -2 -10 -23 0 -32 18 -18 36 9
10 16 11 25 4 9 -7 15 -8 19 -1z m147 -18 c1 -14 2 -13 6 2 6 23 39 22 46 -3
3 -13 0 -20 -9 -20 -8 0 -15 8 -15 18 -1 16 -2 16 -6 0 -5 -20 -33 -25 -33 -7
0 8 -4 8 -13 1 -16 -14 -57 -12 -57 3 0 5 -5 3 -10 -5 -8 -12 -10 -11 -10 7 0
17 7 22 33 25 46 5 67 -2 68 -21z m98 20 c-1 -15 -18 -45 -18 -34 -1 6 -3 18
-6 26 -4 8 0 14 10 14 8 0 15 -3 14 -6z m51 -14 c0 7 9 11 20 10 11 -1 20 -8
20 -17 0 -11 -10 -15 -40 -15 -42 0 -44 2 -33 31 6 16 7 16 20 -2 7 -10 13
-13 13 -7z m129 13 c0 -3 -4 -14 -9 -25 -7 -18 -8 -19 -15 -2 -4 9 -16 17 -27
17 -10 0 -16 -5 -13 -10 4 -6 11 -7 17 -4 7 4 8 2 4 -4 -4 -7 -12 -12 -17 -12
-14 0 -24 31 -11 39 12 7 72 8 71 1z m-1637 -22 c-4 -16 -7 -18 -10 -8 -3 8
-10 18 -16 22 -6 5 -2 8 11 8 17 0 20 -4 15 -22z m48 5 c1 -17 2 -17 15 1 14
18 35 14 35 -7 0 -8 -16 -13 -40 -13 -32 -1 -40 3 -40 18 0 23 30 24 30 1z
m80 -3 c0 -11 -4 -20 -10 -20 -5 0 -10 9 -10 20 0 11 5 20 10 20 6 0 10 -9 10
-20z m50 -3 c0 -16 -3 -17 -14 -8 -11 9 -15 9 -19 -1 -3 -7 -6 -3 -6 9 -1 16
4 21 19 20 12 -1 20 -8 20 -20z m30 3 c0 -11 -4 -20 -10 -20 -5 0 -10 9 -10
20 0 11 5 20 10 20 6 0 10 -9 10 -20z m50 -2 c0 -10 -4 -18 -10 -18 -5 0 -10
6 -10 13 0 8 -4 7 -10 -3 -8 -12 -10 -11 -10 7 0 16 6 21 20 20 12 -1 20 -8
20 -19z m47 2 c1 -14 -4 -20 -18 -20 -12 0 -19 7 -19 20 0 13 7 20 18 20 11 0
18 -8 19 -20z m103 3 c0 -18 16 -17 24 2 8 21 26 19 27 -2 1 -17 2 -17 6 0 4
15 15 17 69 16 58 -2 64 -4 64 -23 0 -16 -3 -18 -9 -7 -5 8 -11 9 -15 3 -7
-12 -186 -12 -186 0 0 5 -9 4 -20 -2 -17 -9 -20 -8 -20 9 0 15 7 19 30 19 18
-1 30 -6 30 -15z m230 7 c0 -5 -6 -10 -12 -10 -9 0 -8 -4 2 -10 13 -8 12 -10
-2 -10 -11 0 -18 8 -18 20 0 11 7 20 15 20 8 0 15 -4 15 -10z m82 -13 c-5 -18
-7 -19 -10 -4 -4 21 -22 23 -22 2 0 -8 -4 -15 -10 -15 -5 0 -10 6 -10 13 0 8
-4 7 -10 -3 -8 -12 -10 -11 -10 6 0 17 7 21 39 22 36 2 39 0 33 -21z m79 11
c0 -10 2 -10 6 0 8 20 43 15 43 -7 0 -15 -8 -18 -41 -18 -26 0 -36 3 -27 8 10
7 10 9 1 9 -7 0 -13 5 -13 10 0 15 30 12 31 -2z m191 -10 c-5 -20 -22 -25 -22
-5 0 8 -3 7 -10 -3 -8 -12 -10 -12 -16 3 -8 22 -24 22 -25 0 -1 -17 -2 -17 -6
0 -6 21 -17 22 -37 1 -15 -14 -16 -14 -16 6 0 19 5 20 69 18 60 -2 67 -4 63
-20z m42 6 c3 -9 6 -17 6 -18 0 -1 -9 -2 -20 -2 -11 0 -20 1 -20 2 0 11 14 34
20 34 4 0 11 -7 14 -16z m47 -1 c1 -17 2 -17 6 0 6 24 32 22 30 -3 -1 -16 -8
-20 -34 -18 -24 1 -33 7 -33 20 0 23 30 24 31 1z m-741 3 c0 -3 -4 -8 -10 -11
-5 -3 -10 -1 -10 4 0 6 5 11 10 11 6 0 10 -2 10 -4z m420 0 c0 -3 -4 -8 -10
-11 -5 -3 -10 -1 -10 4 0 6 5 11 10 11 6 0 10 -2 10 -4z"/>
<path d="M1700 189 c0 -5 5 -7 10 -4 6 3 10 8 10 11 0 2 -4 4 -10 4 -5 0 -10
-5 -10 -11z"/>
<path d="M1780 190 c0 -5 5 -10 11 -10 5 0 7 5 4 10 -3 6 -8 10 -11 10 -2 0
-4 -4 -4 -10z"/>
<path d="M965 190 c3 -5 10 -10 16 -10 5 0 9 5 9 10 0 6 -7 10 -16 10 -8 0
-12 -4 -9 -10z"/>
<path d="M1015 190 c-3 -5 -1 -10 4 -10 6 0 11 5 11 10 0 6 -2 10 -4 10 -3 0
-8 -4 -11 -10z"/>
<path d="M1305 190 c3 -5 8 -10 11 -10 2 0 4 5 4 10 0 6 -5 10 -11 10 -5 0 -7
-4 -4 -10z"/>
<path d="M108 143 c7 -3 16 -2 19 1 4 3 -2 6 -13 5 -11 0 -14 -3 -6 -6z"/>
</g>
</svg>
